# xmcd
#
# Track frame offsets: 
#        150
#        33856
#        67992
#        83336
#        112560
#        131678
#        156739
#        181282
#        203273
#        226281
#        248792
#        277210
#        316310
#
# Disc length: 4554 seconds
#
# Revision: 0
# Processed by: cddbd v1.5.2PL0 Copyright (c) Steve Scherf et al.
# Submitted via: ExactAudioCopy v0.95b3
#
DISCID=a111c80d
DTITLE=Grace Jones - Ultimate Collection - 32bit RMST
DYEAR=2006
DGENRE=R and B
TTITLE0=La Vie En Rose
TTITLE1=Send inthe Clowns
TTITLE2=I need a Man
TTITLE3=Do or Die
TTITLE4=All on a Summers Night
TTITLE5=Fame
TTITLE6=Am I Ever Gonna Fall in Love in New York City
TTITLE7=Don't Mess With the Messer
TTITLE8=Sinning
TTITLE9=Saved
TTITLE10=Private Life
TTITLE11=Love is tha Drug
TTITLE12=Warm Leatherette
EXTD=
EXTT0=
EXTT1=
EXTT2=
EXTT3=
EXTT4=
EXTT5=
EXTT6=
EXTT7=
EXTT8=
EXTT9=
EXTT10=
EXTT11=
EXTT12=
PLAYORDER=
